# xmcd
#
# Track frame offsets:
#	180
#	11844
#	23038
#	34330
#	45011
#	56072
#	66190
#	76597
#	87000
#	98098
#	112558
#	125044
#	137572
#	148571
#	159870
#	170800
#	184590
#	195048
#	206239
#	218988
#	229611
#	239938
#
# Disc length: 3376 seconds
#
# Revision: 0
# Processed by: cddbd v1.4PL0 Copyright (c) Steve Scherf et al.
# Submitted via: dBpowerAMP V4.0
#
DISCID=200d2e16
DTITLE=Patsy Cline - Legends Patsy Cline
DYEAR=1900
DGENRE=Country
TTITLE0=Walking After Midnight
TTITLE1=Hungry For Love
TTITLE2=Crazy Dreams
TTITLE3=Honky Tonk Merry Go Round
TTITLE4=Stop The World
TTITLE5=Three Cigarettes In An Ashtray
TTITLE6=I love You Honey
TTITLE7=Walkin' Dreams
TTITLE8=A Stranger In My Arms
TTITLE9=Then You'll Know
TTITLE10=A Poor Man's Roses Or A Rich Man's Gold
TTITLE11=Fingerprints
TTITLE12=There He Goes
TTITLE13=That Wonderful Someone
TTITLE14=I Cried All The Way To The Alter
TTITLE15=A Church, A Courtroom, And Then Goodbye
TTITLE16=Lovesick Blues
TTITLE17=Hidin' Out
TTITLE18=Yes I Understand
TTITLE19=I Don't Wanna
TTITLE20=How Can I Face Tomorrow
TTITLE21=Life's Railway To Heaven
EXTD=
EXTT0=
EXTT1=
EXTT2=
EXTT3=
EXTT4=
EXTT5=
EXTT6=
EXTT7=
EXTT8=
EXTT9=
EXTT10=
EXTT11=
EXTT12=
EXTT13=
EXTT14=
EXTT15=
EXTT16=
EXTT17=
EXTT18=
EXTT19=
EXTT20=
EXTT21=
PLAYORDER=
